<svg width="690" height="690" viewBox="0 0 690 690" fill="none" xmlns="http://www.w3.org/2000/svg">
<circle cx="345" cy="345" r="345" fill="#F7BCAF" fill-opacity="0.96"/>
<circle cx="345" cy="345" r="217.793" fill="white"/>
<path d="M249.559 288.873C226.43 288.873 177.28 319.386 174.196 479.744C72.4304 368.727 147.213 234.967 193.47 188.71C311.039 86.5595 435.034 134.744 480.648 169.437C605.928 264.72 567.576 427.644 521.319 471.752C525.816 404.294 503.972 253.906 417.24 288.873C399.894 295.866 366.358 333.796 370.984 429.571C363.916 426.927 344 423.226 320.872 429.571C328.581 377.311 313.162 279.236 249.559 288.873Z" fill="black" stroke="black"/>
<circle cx="248.631" cy="398.967" r="21.2011" fill="black"/>
<circle cx="445.223" cy="398.967" r="21.2011" fill="black"/>
<path d="M383.547 432.591C383.547 436.849 366.289 471.139 345 471.139C323.711 471.139 308.38 436.849 308.38 432.591C308.38 428.333 322.645 424.022 343.935 424.022C365.224 424.022 383.547 428.333 383.547 432.591Z" fill="#F55D3E" fill-opacity="0.96"/>
</svg>
